<?xml version="1.0" encoding="UTF-8"?><svg xmlns="http://www.w3.org/2000/svg" viewBox="53 102 85 45" role="img" aria-label="OLLO"><path fill="#546197" d="m 69.888299,115.33156 c 3.534599,0 6.560683,1.38057 9.078251,4.14172 2.534241,2.74309 3.801361,6.03661 3.801361,9.88056 0,3.89808 -1.283793,7.21867 -3.851379,9.96177 -2.550913,2.74309 -5.635351,4.11464 -9.253313,4.11464 -3.617962,0 -6.710736,-1.37155 -9.278323,-4.11464 -2.567586,-2.76115 -3.851379,-6.08174 -3.851379,-9.96177 0,-3.95223 1.283793,-7.27282 3.851379,-9.96177 2.567587,-2.70701 5.735388,-4.06051 9.503403,-4.06051 z m -0.250089,9.98884 c -1.000358,0 -1.850663,0.39703 -2.550914,1.19108 -0.700251,0.77601 -1.050376,1.73249 -1.050376,2.86943 0,1.11889 0.350125,2.07537 1.050376,2.86942 0.716923,0.79405 1.567228,1.19108 2.550914,1.19108 1.000358,0 1.850662,-0.39703 2.550913,-1.19108 0.716923,-0.79405 1.075385,-1.75053 1.075385,-2.86942 0,-1.13694 -0.350125,-2.09342 -1.050376,-2.86943 -0.700251,-0.79405 -1.558891,-1.19108 -2.575922,-1.19108 z m 24.329416,-19.38214 v 36.95059 h -9.353354 v -36.95059 z m 12.246114,0 v 36.95059 h -9.353354 v -36.95059 z m 24.37943,9.3933 c 3.534599,0 6.560683,1.38057 9.078251,4.14172 2.534241,2.74309 3.801361,6.03661 3.801361,9.88056 0,3.89808 -1.283793,7.21867 -3.851379,9.96177 -2.550913,2.74309 -5.635351,4.11464 -9.253313,4.11464 -3.617962,0 -6.710736,-1.37155 -9.278323,-4.11464 -2.567586,-2.76115 -3.851379,-6.08174 -3.851379,-9.96177 0,-3.95223 1.283793,-7.27282 3.851379,-9.96177 2.567587,-2.70701 5.735388,-4.06051 9.503403,-4.06051 z m -0.250089,9.98884 c -1.000358,0 -1.850663,0.39703 -2.550914,1.19108 -0.700251,0.77601 -1.050376,1.73249 -1.050376,2.86943 0,1.11889 0.350125,2.07537 1.050376,2.86942 0.716923,0.79405 1.567228,1.19108 2.550914,1.19108 1.000358,0 1.850662,-0.39703 2.550913,-1.19108 0.716923,-0.79405 1.075385,-1.75053 1.075385,-2.86942 0,-1.13694 -0.350125,-2.09342 -1.050376,-2.86943 -0.700251,-0.79405 -1.558891,-1.19108 -2.575922,-1.19108 z"/></svg>